<svg width="25" height="29" viewBox="0 0 25 29" xmlns="http://www.w3.org/2000/svg">
    <path d="M24.0909 18.7159V3.37499C24.0909 1.96289 22.9457 0.818176 21.5341 0.818176H5.34093C2.51671 0.818176 0.227295 3.10759 0.227295 5.93181V22.9773C0.227295 25.8015 2.51671 28.0909 5.34093 28.0909H22.3864C23.3276 28.0909 24.0909 27.3276 24.0909 26.4343C24.0909 25.81 23.739 25.288 23.2387 24.9908V20.657C23.7607 20.1435 24.0909 19.4723 24.0909 18.7159ZM7.84981 7.63636H18.0771C18.5938 7.63636 18.9773 8.01988 18.9773 8.48863C18.9773 8.95738 18.5938 9.3409 18.125 9.3409H7.84981C7.429 9.3409 7.04548 8.95738 7.04548 8.48863C7.04548 8.01988 7.429 7.63636 7.84981 7.63636ZM7.84981 11.0454H18.0771C18.5938 11.0454 18.9773 11.429 18.9773 11.8977C18.9773 12.3665 18.5938 12.75 18.125 12.75H7.84981C7.429 12.75 7.04548 12.3665 7.04548 11.8977C7.04548 11.429 7.429 11.0454 7.84981 11.0454ZM20.6818 24.6818H5.34093C4.3997 24.6818 3.63639 23.9185 3.63639 22.9773C3.63639 22.036 4.3997 21.2727 5.34093 21.2727H20.6818V24.6818Z" />
</svg>