<svg width="21" height="20" viewBox="0 0 21 20" xmlns="http://www.w3.org/2000/svg">
    <path d="M11.5501 0.703046C11.341 0.273407 10.8991 0 10.4138 0C9.92856 0 9.49064 0.273407 9.27759 0.703046L6.74077 5.87044L1.07534 6.69847C0.60191 6.76877 0.207382 7.09686 0.0614062 7.54603C-0.0845693 7.9952 0.0337891 8.49124 0.373084 8.82323L4.48407 12.8501L3.51353 18.5409C3.43462 19.0096 3.63189 19.4861 4.02247 19.7634C4.41306 20.0407 4.92989 20.0759 5.35598 19.8532L10.4178 17.1778L15.4796 19.8532C15.9057 20.0759 16.4225 20.0446 16.8131 19.7634C17.2037 19.4822 17.4009 19.0096 17.322 18.5409L16.3475 12.8501L20.4585 8.82323C20.7978 8.49124 20.9201 7.9952 20.7702 7.54603C20.6203 7.09686 20.2297 6.76877 19.7563 6.69847L14.0869 5.87044L11.5501 0.703046Z" />
</svg>