<svg width="654" height="654" viewBox="0 0 654 654" xmlns="http://www.w3.org/2000/svg">
    <path d="M326.667 0.666748C145.72 0.666748 0 217.667 0 397.333C0 558.053 122.125 654 326.667 654C531.208 654 653.333 558.052 653.333 397.333C653.333 217.667 507.613 0.666748 326.667 0.666748ZM175 222.333C175.005 218.162 175.766 214.026 177.245 210.13L147.333 198.172C141.348 195.781 138.442 188.99 140.833 183.005C143.229 177.026 150.015 174.115 155.999 176.505L272.666 223.172C278.651 225.568 281.557 232.354 279.166 238.339C276.77 244.323 269.984 247.229 263.999 244.839L242.171 236.109C237.911 246.062 229.276 253.484 218.791 256.208C208.307 258.927 197.151 256.64 188.583 250.015C180.016 243.385 174.999 233.166 174.999 222.333L175 222.333ZM420 374H233.333C226.891 374 221.667 368.776 221.667 362.333C221.667 324.823 241.677 290.156 274.167 271.401C306.656 252.647 346.677 252.647 379.167 271.401C411.656 290.156 431.667 324.823 431.667 362.333C431.667 365.427 430.438 368.396 428.25 370.583C426.063 372.771 423.094 374 420 374ZM506 198.16L476.088 210.118C477.567 214.02 478.328 218.155 478.333 222.327C478.328 233.16 473.312 243.379 464.745 250.004C456.177 256.629 445.026 258.916 434.542 256.192C424.058 253.473 415.422 246.051 411.162 236.093L389.334 244.822V244.827C383.35 247.218 376.563 244.312 374.167 238.327C371.777 232.343 374.683 225.556 380.667 223.161L497.334 176.494C503.319 174.103 510.105 177.01 512.501 182.994C514.891 188.978 511.985 195.765 506.001 198.161L506 198.16Z" />
    <path d="M432.853 227.427C435.218 232.323 440.656 234.927 445.952 233.708C451.249 232.489 455.004 227.776 454.999 222.338C454.999 221.135 454.801 219.942 454.416 218.802L432.853 227.427Z" />
    <path d="M198.333 222.333C198.328 227.771 202.083 232.484 207.38 233.703C212.677 234.922 218.115 232.318 220.479 227.422L198.917 218.797C198.531 219.938 198.333 221.13 198.333 222.333L198.333 222.333Z" />
    <path d="M303.333 284.08V350.668H350V284.08C334.776 279.533 318.557 279.533 303.333 284.08V284.08Z" />
    <path d="M245.84 350.667H280.007V295.369C261.465 308.286 249.095 328.301 245.84 350.667Z" />
    <path d="M373.333 295.374V350.671H407.5C404.245 328.307 391.875 308.291 373.333 295.374Z" />
</svg>