<svg width="45" height="37" viewBox="0 0 45 37" xmlns="http://www.w3.org/2000/svg">
    <path d="M3.71875 20.1757L17.8359 33.3554C18.4219 33.9023 19.1953 34.207 20 34.207C20.8047 34.207 21.5781 33.9023 22.1641 33.3554L22.3672 33.1679C20.875 30.9726 20 28.3163 20 25.457C20 17.8632 26.1562 11.707 33.75 11.707C35.9609 11.707 38.0469 12.2304 39.8984 13.1523C39.9688 12.6445 40 12.1366 40 11.621V11.1679C40 5.70696 36.0547 1.05071 30.6719 0.152274C27.1094 -0.441476 23.4844 0.722587 20.9375 3.26946L20 4.20696L19.0625 3.26946C16.5156 0.722587 12.8906 -0.441476 9.32812 0.152274C3.94531 1.05071 0 5.70696 0 11.1679V11.621C0 14.8632 1.34375 17.9648 3.71875 20.1757ZM33.75 36.707C39.9609 36.707 45 31.6679 45 25.457C45 19.246 39.9609 14.207 33.75 14.207C27.5391 14.207 22.5 19.246 22.5 25.457C22.5 31.6679 27.5391 36.707 33.75 36.707ZM35 20.457V24.207H38.75C39.4375 24.207 40 24.7695 40 25.457C40 26.1445 39.4375 26.707 38.75 26.707H35V30.457C35 31.1445 34.4375 31.707 33.75 31.707C33.0625 31.707 32.5 31.1445 32.5 30.457V26.707H28.75C28.0625 26.707 27.5 26.1445 27.5 25.457C27.5 24.7695 28.0625 24.207 28.75 24.207H32.5V20.457C32.5 19.7695 33.0625 19.207 33.75 19.207C34.4375 19.207 35 19.7695 35 20.457Z" />
</svg>