<svg width="25" height="22" viewBox="0 0 25 22" xmlns="http://www.w3.org/2000/svg">
    <path d="M0 1.78571C0 0.799665 0.799665 0 1.78571 0H23.2143C24.202 0 25 0.799665 25 1.78571C25 2.77344 24.202 3.57143 23.2143 3.57143H1.78571C0.799665 3.57143 0 2.77344 0 1.78571ZM0 10.7143C0 9.72656 0.799665 8.92857 1.78571 8.92857H23.2143C24.202 8.92857 25 9.72656 25 10.7143C25 11.702 24.202 12.5 23.2143 12.5H1.78571C0.799665 12.5 0 11.702 0 10.7143ZM23.2143 21.4286H1.78571C0.799665 21.4286 0 20.6306 0 19.6429C0 18.6551 0.799665 17.8571 1.78571 17.8571H23.2143C24.202 17.8571 25 18.6551 25 19.6429C25 20.6306 24.202 21.4286 23.2143 21.4286Z" />
</svg>