<svg width="654" height="654" viewBox="0 0 654 654" xmlns="http://www.w3.org/2000/svg">
    <path d="M326.667 397.333C405.656 397.333 470.72 345.984 477.707 280.667H175.627C182.611 345.984 247.679 397.333 326.667 397.333Z" />
    <path d="M326.667 0.666748C145.72 0.666748 0 217.667 0 397.333C0 558.04 122.125 654 326.667 654C531.208 654 653.333 558.041 653.333 397.333C653.333 217.667 507.613 0.666748 326.667 0.666748ZM455 187.333C464.281 187.344 473.177 191.036 479.74 197.594C486.297 204.156 489.99 213.052 490 222.334C490 228.776 484.776 234 478.334 234C471.891 234 466.667 228.776 466.667 222.334C466.667 215.891 461.443 210.667 455 210.667C448.558 210.667 443.334 215.891 443.334 222.334C443.334 228.776 438.11 234 431.667 234C425.224 234 420 228.776 420 222.334C420.011 213.053 423.703 204.156 430.261 197.594C436.823 191.036 445.719 187.344 455.001 187.333H455ZM198.333 187.333C207.615 187.344 216.511 191.036 223.073 197.594C229.631 204.156 233.323 213.052 233.334 222.334C233.334 228.776 228.11 234 221.667 234C215.224 234 210 228.776 210 222.334C210 215.891 204.776 210.667 198.334 210.667C191.891 210.667 186.667 215.891 186.667 222.334C186.667 228.776 181.443 234 175 234C168.558 234 163.334 228.776 163.334 222.334C163.344 213.053 167.037 204.156 173.594 197.594C180.157 191.036 189.053 187.344 198.334 187.333H198.333ZM326.667 420.667C230.167 420.667 151.667 352.625 151.667 269C151.667 262.557 156.891 257.333 163.333 257.333H490C493.094 257.333 496.063 258.563 498.25 260.75C500.437 262.938 501.667 265.906 501.667 269C501.667 352.625 423.167 420.667 326.667 420.667Z" />
</svg>