<svg width="654" height="654" viewBox="0 0 654 654" xmlns="http://www.w3.org/2000/svg">
    <path d="M215.84 199C206.189 199 198.34 206.323 198.34 215.333V221.292C198.34 227.734 193.116 232.958 186.673 232.958C180.231 232.958 175.007 227.734 175.007 221.292V215.333C175.007 206.323 167.158 199 157.507 199C147.856 199 140.007 206.323 140.007 215.333C141.225 226.807 176.419 267.083 187.059 269.021C196.923 267.084 232.121 226.808 233.351 215.152C233.34 206.324 225.491 199.001 215.84 199.001V199Z" />
    <path d="M478.333 215.333V221.292C478.333 227.734 473.109 232.958 466.667 232.958C460.224 232.958 455 227.734 455 221.292V215.333C455 206.323 447.151 199 437.5 199C427.849 199 420 206.323 420 215.333C421.219 226.807 456.412 267.083 467.052 269.021C476.917 267.084 512.115 226.808 513.344 215.152C513.334 206.324 505.485 199.001 495.833 199.001C486.182 199.001 478.333 206.324 478.333 215.335V215.333Z" />
    <path d="M326.667 0.666748C145.72 0.666748 0 217.667 0 397.333C0 558.053 122.12 654 326.667 654C531.213 654 653.333 558.052 653.333 397.333C653.333 217.667 507.613 0.666748 326.667 0.666748ZM186.667 292.333C163.333 292.333 116.667 237.088 116.667 215.333C116.667 193.459 134.984 175.667 157.5 175.667C168.417 175.63 178.901 179.922 186.667 187.594C194.432 179.922 204.917 175.63 215.833 175.667C238.349 175.667 256.667 193.459 256.667 215.333C256.667 237.088 210 292.333 186.667 292.333ZM326.667 374C305.016 373.974 284.255 365.365 268.948 350.052C253.636 334.745 245.027 313.984 245 292.333C245 285.891 250.224 280.667 256.667 280.667C263.109 280.667 268.333 285.891 268.333 292.333C268.333 313.172 279.453 332.432 297.5 342.849C315.547 353.271 337.787 353.271 355.833 342.849C373.88 332.433 385 313.172 385 292.333C385 285.891 390.224 280.667 396.667 280.667C403.109 280.667 408.333 285.891 408.333 292.333C408.307 313.984 399.698 334.745 384.385 350.052C369.079 365.364 348.317 373.973 326.667 374ZM536.667 215.333C536.667 237.083 490 292.333 466.667 292.333C443.333 292.333 396.667 237.088 396.667 215.333C396.667 193.459 414.984 175.667 437.5 175.667C448.417 175.63 458.901 179.922 466.667 187.594C474.432 179.922 484.917 175.63 495.833 175.667C518.349 175.667 536.667 193.459 536.667 215.333Z" />
</svg>