<svg width="45" height="30" viewBox="0 0 45 30" xmlns="http://www.w3.org/2000/svg">
    <path d="M9.75 30H33.75C39.75 30 45 24.75 45 18.75C45 12.0599 39.27 6.69 32.22 8.10021C30.0001 3 25.5001 0 20.25 0C13.5 0 7.5 5.25 7.5 12C3.14979 12.3001 0 16.5 0 20.25C0 25.5 4.5 30 9.75 30ZM19.6498 24.09L14.3998 18.8099C13.8896 18.2997 13.9197 18.2997 14.3998 17.7899L15.7198 16.4397C16.1998 15.9296 16.2597 15.9296 16.7699 16.4397L20.1901 19.8599L27.8102 12.2102C28.3204 11.7 28.3802 11.7 28.8603 12.2102L30.1803 13.5604C30.6603 14.0706 30.6905 14.0404 30.1803 14.5803L20.7003 24.0905C20.1901 24.6007 20.1604 24.6304 19.6502 24.0905L19.6498 24.09Z" />
</svg>