<svg width="654" height="655" viewBox="0 0 654 655" xmlns="http://www.w3.org/2000/svg">
    <path d="M151.667 275.28V623.333C166.844 629.583 182.437 634.776 198.333 638.875V275.288C191 278.647 183.063 280.475 175 280.668C166.938 280.476 159 278.647 151.667 275.288V275.28Z" />
    <path d="M326.667 0.666748C145.72 0.666748 0 217.667 0 397.333C0 495.749 45.864 569.827 128.333 612.507V261.12C123.974 257.625 120.917 254.745 120.083 253.912C115.656 249.339 115.714 242.063 120.208 237.557C124.703 233.051 131.979 232.979 136.563 237.396C142.157 242.937 159.948 257.328 175 257.328C190.052 257.328 207.844 242.937 213.432 237.396C218.01 232.979 225.292 233.052 229.787 237.557C234.282 242.062 234.334 249.338 229.912 253.912C229.079 254.745 226.027 257.625 221.662 261.12V644.28C256.261 650.957 291.433 654.212 326.667 653.994C361.902 654.212 397.074 650.957 431.667 644.28V261.12C427.308 257.625 424.251 254.745 423.417 253.912C418.99 249.339 419.048 242.063 423.542 237.557C428.037 233.051 435.313 232.979 439.897 237.396C445.491 242.937 463.282 257.328 478.334 257.328C493.386 257.328 511.178 242.937 516.766 237.396C521.344 232.979 528.626 233.052 533.121 237.557C537.616 242.062 537.668 249.338 533.246 253.912C532.413 254.745 529.361 257.625 524.996 261.12V612.507C607.465 569.824 653.329 495.752 653.329 397.333C653.335 217.667 507.609 0.666748 326.663 0.666748H326.667ZM361.667 315.667C355.224 315.667 350 310.443 350 304C350 295.662 345.552 287.959 338.333 283.792C331.115 279.625 322.219 279.625 315 283.792C307.781 287.959 303.333 295.662 303.333 304C303.333 310.443 298.109 315.667 291.667 315.667C285.224 315.667 280 310.443 280 304C280 287.328 288.896 271.921 303.333 263.584C317.771 255.251 335.563 255.251 350 263.584C364.437 271.923 373.333 287.329 373.333 304C373.333 307.094 372.104 310.063 369.917 312.25C367.729 314.438 364.76 315.667 361.667 315.667Z" />
    <path d="M455 275.28V638.867C470.896 634.768 486.489 629.575 501.667 623.325V275.272C486.937 282.444 469.729 282.444 455 275.272V275.28Z" />
</svg>