<svg width="654" height="654" viewBox="0 0 654 654" xmlns="http://www.w3.org/2000/svg">
    <path d="M355.84 327.333H297.507C288.028 327.333 280.007 338.021 280.007 350.667C280.007 363.313 288.028 374 297.507 374H355.84C365.319 374 373.34 363.313 373.34 350.667C373.34 338.021 365.319 327.333 355.84 327.333Z" />
    <path d="M443.333 210.667C434.052 210.667 425.145 214.354 418.584 220.917C412.023 227.479 408.334 236.386 408.334 245.666C408.334 254.946 412.021 263.854 418.584 270.415C425.147 276.977 434.053 280.665 443.333 280.665C452.613 280.665 461.521 276.978 468.083 270.415C474.644 263.853 478.333 254.946 478.333 245.666C478.322 236.385 474.63 227.489 468.072 220.926C461.51 214.369 452.614 210.676 443.332 210.666L443.333 210.667ZM443.333 257.333C438.615 257.333 434.359 254.49 432.557 250.13C430.75 245.771 431.745 240.755 435.083 237.417C438.422 234.078 443.437 233.083 447.797 234.891C452.156 236.693 455 240.948 455 245.667C455 248.761 453.771 251.729 451.583 253.917C449.396 256.104 446.427 257.333 443.333 257.333Z" />
    <path d="M210 210.667C200.719 210.667 191.812 214.354 185.251 220.917C178.689 227.479 175.001 236.386 175.001 245.666C175.001 254.946 178.688 263.854 185.251 270.415C191.813 276.977 200.72 280.665 210 280.665C219.28 280.665 228.188 276.978 234.749 270.415C241.311 263.853 244.999 254.946 244.999 245.666C244.989 236.385 241.296 227.489 234.739 220.926C228.176 214.369 219.28 210.676 209.999 210.666L210 210.667ZM210 257.333C205.281 257.333 201.026 254.49 199.224 250.13C197.417 245.771 198.412 240.755 201.75 237.417C205.089 234.078 210.104 233.083 214.464 234.891C218.823 236.693 221.667 240.948 221.667 245.667C221.667 248.761 220.438 251.729 218.25 253.917C216.063 256.104 213.094 257.333 210 257.333Z" />
    <path d="M326.667 0.666748C145.72 0.666748 0 217.667 0 397.333C0 558.04 122.12 654 326.667 654C531.213 654 653.333 558.041 653.333 397.333C653.333 217.667 507.613 0.666748 326.667 0.666748ZM140.013 187.333C134.602 187.339 129.894 183.62 128.649 178.354C127.399 173.083 129.94 167.651 134.784 165.229L181.451 141.896C187.217 139.016 194.222 141.354 197.107 147.115C199.987 152.88 197.649 159.885 191.888 162.771L145.221 186.104C143.602 186.911 141.82 187.333 140.013 187.333L140.013 187.333ZM210.003 304C194.533 304 179.696 297.854 168.752 286.917C157.815 275.975 151.669 261.136 151.669 245.667C151.669 230.197 157.815 215.36 168.752 204.416C179.695 193.479 194.533 187.333 210.003 187.333C225.472 187.333 240.309 193.479 251.253 204.416C262.191 215.359 268.336 230.197 268.336 245.667C268.32 261.131 262.164 275.959 251.232 286.896C240.295 297.828 225.467 303.984 210.003 304ZM355.843 397.333H297.509C274.993 397.333 256.676 376.401 256.676 350.667C256.676 324.932 274.993 304 297.509 304H355.843C378.353 304 396.676 324.932 396.676 350.667C396.676 376.401 378.353 397.333 355.843 397.333ZM443.343 304C427.873 304 413.036 297.854 402.092 286.917C391.155 275.975 385.009 261.136 385.009 245.667C385.009 230.197 391.155 215.36 402.092 204.416C413.035 193.479 427.873 187.333 443.343 187.333C458.812 187.333 473.649 193.479 484.593 204.416C495.531 215.359 501.676 230.197 501.676 245.667C501.66 261.131 495.504 275.959 484.572 286.896C473.635 297.828 458.807 303.984 443.343 304ZM523.78 180.885C522.395 183.651 519.967 185.755 517.03 186.734C514.098 187.714 510.895 187.484 508.124 186.104L461.457 162.771C455.697 159.885 453.358 152.88 456.238 147.115C459.124 141.354 466.129 139.016 471.894 141.896L518.561 165.229C521.327 166.615 523.431 169.042 524.41 171.979C525.389 174.912 525.16 178.115 523.78 180.886L523.78 180.885Z" />
</svg>