<svg width="26" height="25" viewBox="0 0 26 25" xmlns="http://www.w3.org/2000/svg">
    <path d="M9.42857 2.67857C9.42857 1.19922 10.6283 0 12.1071 0H13.8929C15.3717 0 16.5714 1.19922 16.5714 2.67857V22.3214C16.5714 23.8002 15.3717 25 13.8929 25H12.1071C10.6283 25 9.42857 23.8002 9.42857 22.3214V2.67857ZM0.5 13.3929C0.5 11.9141 1.69922 10.7143 3.17857 10.7143H4.96429C6.44308 10.7143 7.64286 11.9141 7.64286 13.3929V22.3214C7.64286 23.8002 6.44308 25 4.96429 25H3.17857C1.69922 25 0.5 23.8002 0.5 22.3214V13.3929ZM22.8214 3.57143C24.3002 3.57143 25.5 4.77121 25.5 6.25V22.3214C25.5 23.8002 24.3002 25 22.8214 25H21.0357C19.5569 25 18.3571 23.8002 18.3571 22.3214V6.25C18.3571 4.77121 19.5569 3.57143 21.0357 3.57143H22.8214Z" />
</svg>