<svg width="33" height="40" viewBox="0 0 33 40" xmlns="http://www.w3.org/2000/svg">
    <path d="M12.5 0C11.1172 0 10 1.11719 10 2.5C10 3.88281 11.1172 5 12.5 5H13.75V7.6875C5.96094 8.89062 0 15.625 0 23.75C0 32.7266 7.27344 40 16.25 40C25.2266 40 32.5 32.7266 32.5 23.75C32.5 20.4844 31.5391 17.4453 29.8828 14.9062L31.7656 13.0234C32.7422 12.0469 32.7422 10.4609 31.7656 9.48438C30.7891 8.50781 29.2031 8.50781 28.2266 9.48438L26.5391 11.1719C24.3438 9.375 21.6797 8.14062 18.75 7.6875V5H20C21.3828 5 22.5 3.88281 22.5 2.5C22.5 1.11719 21.3828 0 20 0H16.25H12.5ZM18.125 15V25C18.125 26.0391 17.2891 26.875 16.25 26.875C15.2109 26.875 14.375 26.0391 14.375 25V15C14.375 13.9609 15.2109 13.125 16.25 13.125C17.2891 13.125 18.125 13.9609 18.125 15Z" />
</svg>