<?xml version="1.0" standalone="no"?>
<!DOCTYPE svg PUBLIC "-//W3C//DTD SVG 20010904//EN"
 "http://www.w3.org/TR/2001/REC-SVG-20010904/DTD/svg10.dtd">
<svg version="1.0" xmlns="http://www.w3.org/2000/svg"
 width="500.000000pt" height="500.000000pt" viewBox="0 0 500.000000 500.000000"
 preserveAspectRatio="xMidYMid meet">
<metadata>
Created by potrace 1.14, written by Peter Selinger 2001-2017
</metadata>
<g transform="translate(0.000000,500.000000) scale(0.100000,-0.100000)"
fill="#000000" stroke="none">
<path d="M843 4985 c-400 -73 -705 -356 -815 -758 l-23 -82 0 -1650 0 -1650
23 -85 c28 -102 85 -227 146 -318 49 -74 162 -190 246 -253 77 -57 239 -134
340 -161 l85 -23 1655 0 1655 0 84 22 c115 31 270 107 369 182 190 144 325
360 373 598 19 89 19 157 16 1725 l-3 1633 -23 80 c-49 172 -130 312 -256 443
-130 137 -287 229 -483 285 l-77 22 -1620 2 c-1301 1 -1634 -1 -1692 -12z
m1805 -876 c278 -30 519 -117 744 -268 123 -83 246 -193 264 -237 27 -64 -13
-137 -81 -150 -49 -9 -68 1 -148 72 -184 166 -402 278 -647 335 -121 28 -372
36 -505 15 -204 -31 -418 -115 -582 -228 -216 -149 -406 -384 -504 -624 -38
-94 -89 -278 -89 -323 0 -23 6 -19 72 46 85 83 102 93 158 93 81 0 127 -91 86
-168 -8 -15 -100 -109 -205 -210 -206 -198 -227 -211 -287 -179 -16 9 -114
101 -218 205 -181 182 -188 191 -193 235 -5 43 -3 49 30 82 30 30 42 35 82 35
47 0 50 -2 141 -92 52 -50 95 -90 97 -87 2 2 11 54 21 114 58 360 264 721 546
957 344 288 786 425 1218 377z m-548 -1172 c51 -27 90 -90 90 -147 0 -97 -88
-175 -187 -168 -98 8 -159 82 -151 184 5 64 37 110 92 135 55 25 104 24 156
-4z m924 3 c122 -59 125 -234 5 -298 -87 -47 -200 -10 -236 77 -21 49 -13 129
17 171 27 38 90 69 139 70 19 0 53 -9 75 -20z m1020 -225 c42 -20 392 -372
405 -408 15 -39 -2 -100 -36 -126 -17 -14 -40 -21 -71 -21 -43 0 -48 4 -138
92 -52 50 -96 90 -98 87 -2 -2 -12 -49 -21 -104 -55 -324 -195 -606 -419 -842
-488 -516 -1237 -655 -1885 -352 -232 109 -481 312 -481 392 0 40 28 84 65
101 58 28 92 16 181 -65 174 -158 379 -265 624 -327 96 -24 123 -26 305 -27
214 0 285 10 444 62 490 159 875 610 946 1108 l7 50 -89 -87 c-86 -84 -92 -88
-135 -88 -55 0 -92 26 -108 75 -20 62 -4 87 197 287 217 216 235 227 307 193z
m-1826 -524 c87 -70 156 -95 262 -95 109 -1 170 20 263 90 59 45 79 54 112 54
77 0 125 -65 105 -141 -13 -48 -89 -112 -195 -164 -95 -47 -173 -65 -280 -65
-152 0 -286 45 -395 131 -97 77 -116 145 -56 205 28 28 41 34 78 34 39 0 53
-7 106 -49z"/>
</g>
</svg>
